<?xml version="1.0" encoding="utf-8"?>
<!-- Generator: Adobe Illustrator 28.0.0, SVG Export Plug-In . SVG Version: 6.00 Build 0)  -->
<svg version="1.1" id="Layer_1" xmlns="http://www.w3.org/2000/svg" xmlns:xlink="http://www.w3.org/1999/xlink" x="0px" y="0px"
	 viewBox="0 0 56.69 56.69" style="enable-background:new 0 0 56.69 56.69;" xml:space="preserve">
<g>
	<path d="M43.24,11.32l-2.71,11.05h-0.79c-0.18-1.73-0.49-3.11-0.94-4.15c-0.67-1.5-1.57-2.67-2.68-3.48
		c-1.11-0.82-2.32-1.23-3.61-1.23c-1.25,0-2.34,0.48-3.28,1.43s-1.4,2.03-1.4,3.23c0,1.18,0.32,2.35,0.97,3.49
		c0.65,1.15,2.18,2.87,4.6,5.18c1.94,1.84,3.24,3.43,3.9,4.76c0.66,1.33,1,2.77,1,4.32c0,1.75-0.46,3.35-1.39,4.83
		c-0.93,1.47-2.28,2.61-4.05,3.42c-1.77,0.81-3.77,1.21-6.02,1.21c-1.38,0-3.11-0.2-5.2-0.61s-3.48-0.61-4.17-0.61
		c-0.54,0-1.03,0.08-1.46,0.25c-0.43,0.17-0.97,0.49-1.61,0.97h-0.94l2.91-12.42h0.91c0.21,2.18,0.65,4.03,1.32,5.56
		c0.67,1.53,1.63,2.72,2.88,3.58c1.25,0.86,2.67,1.28,4.27,1.28c1.58,0,2.91-0.52,3.97-1.57c1.06-1.05,1.6-2.28,1.6-3.69
		c0-1.2-0.3-2.35-0.9-3.46c-0.6-1.1-1.97-2.71-4.11-4.83c-2.14-2.11-3.61-4-4.43-5.67C21.29,22.94,21,21.62,21,20.23
		c0-2.42,0.95-4.51,2.86-6.27c1.91-1.76,4.39-2.64,7.47-2.64c1.39,0,3.23,0.31,5.5,0.94c1.33,0.37,2.27,0.55,2.81,0.55
		c0.46,0,0.88-0.1,1.25-0.3c0.37-0.2,0.8-0.6,1.3-1.19H43.24z"/>
</g>
</svg>
